<?xml version="1.0" encoding="utf-8"?>
<!-- Generator: Adobe Illustrator 16.0.0, SVG Export Plug-In . SVG Version: 6.00 Build 0)  -->
<!DOCTYPE svg PUBLIC "-//W3C//DTD SVG 1.1//EN" "http://www.w3.org/Graphics/SVG/1.1/DTD/svg11.dtd">
<svg version="1.1" id="Layer_1" xmlns="http://www.w3.org/2000/svg" xmlns:xlink="http://www.w3.org/1999/xlink" x="0px" y="0px"
	 width="256px" height="256px" viewBox="0 0 256 256" enable-background="new 0 0 256 256" xml:space="preserve">
<rect x="-18.812" y="-17.008" fill="#59969D" width="291.819" height="290.016"/>
<path display="none" d="M121.574,98.387H89.076c0,0-2.732-7.645-7.919-7.919c-5.191-0.27-70.458,0-70.458,0s-12.561,7.919,0,16.658
	H31.18v1.912l-19.936-0.099c0,0-13.288,7.884,0.273,16.757l19.712-0.051l-0.049,1.419H12.882c0,0-9.832,9.01,1.367,15.836h31.678
	v1.349H19.168c0,0-8.197,8.014,0.819,15.66h24.847l-0.033,0.862l-21.539,0.035l0.03,2.31l58.684-0.223c0,0,6.4,0.675,7.263-7.253
	h31.665L121.574,98.387z"/>
<path display="none" fill="none" stroke="#77A2A5" stroke-miterlimit="10" d="M67.641,95.894H39.985c0,0-7.063,0.513-7.167,6.764
	c-0.102,6.245,0,31.844,0,31.844s9.32,11.88,16.794,0l0.592-20.172h10.978c0,0-2.557,19.353,12.906,26.933
	c15.465,7.577,0.905,0.444,0.905,0.444"/>
<g>
	<path fill="#FEDBB3" d="M121.813,97.851h-32.53c0,0-2.732-7.657-7.927-7.929c-5.194-0.273-70.526,0-70.526,0
		s-12.575,7.927,0,16.672h20.501v1.917l-19.955-0.098c0,0-13.301,7.889,0.273,16.771l19.733-0.05l-0.052,1.418H13.016
		c0,0-9.839,9.019,1.369,15.853h31.709v1.35H19.305c0,0-8.201,8.021,0.821,15.674H45l-0.033,0.864l-21.56,0.032l0.033,2.313
		l58.738-0.225c0,0,6.407,0.681,7.271-7.252h31.699L121.813,97.851z"/>
	<path fill="#FEDBB3" d="M50.822,87.447l-1.753-17.098c0,0,28.858,8.548,33.318,17.098H50.822z"/>
</g>
<rect x="102.313" y="93.171" fill="#EBEBEB" width="15.75" height="68.285"/>
<rect x="114.917" y="90.349" fill="#383A56" width="140.835" height="74.623"/>
<path fill="#131D3E" d="M132.786,146.611c3.275,0,5.933,2.662,5.933,5.939c0,3.282-2.657,5.937-5.933,5.937
	c-3.281,0-5.943-2.654-5.943-5.937C126.843,149.273,129.505,146.611,132.786,146.611z"/>
<path fill="#131D3E" d="M148.862,146.611c3.283,0,5.94,2.662,5.94,5.939c0,3.282-2.657,5.937-5.94,5.937
	c-3.276,0-5.931-2.654-5.931-5.937C142.932,149.273,145.586,146.611,148.862,146.611z"/>
<path fill-rule="evenodd" clip-rule="evenodd" fill="#EBEBEB" d="M20.901,22.607c0.977-0.692,1.932-1.427,2.942-2.068
	c1.597-1.018,3.483-0.02,3.592,1.873c0.016,0.222,0.01,0.448,0.014,0.675c0.054,4.409,0.106,8.821,0.161,13.235
	c0.057,4.143,2.489,6.521,6.611,6.469c1.993-0.024,3.99-0.044,5.985-0.077c3.524-0.054,6.027-2.622,5.986-6.134
	c-0.055-4.664-0.125-9.327-0.158-13.995c0-0.591,0.109-1.248,0.366-1.776c0.589-1.201,2.068-1.472,3.346-0.692
	c6.748,4.095,10.522,10.118,11.443,17.907c0.748,6.286-0.388,12.213-3.985,17.512c-2.555,3.757-6.016,6.488-10.181,8.285
	c-0.641,0.274-0.797,0.578-0.732,1.245c1.319,15.134,0.612,8.36,1.89,22.801c0.016,0.238-20.542,0.083-20.529-0.108
	c0.939-14.639,0.368-7.028,1.348-22.248c0.043-0.672-0.089-1.021-0.799-1.289c-4.362-1.646-8.112-4.26-10.722-8.113
	c-5.6-8.277-6.092-17.097-2.096-26.181c0.669-1.519,1.708-2.874,2.577-4.301C18.936,24.624,19.918,23.614,20.901,22.607z"/>
<path fill-rule="evenodd" clip-rule="evenodd" fill="#EBEBEB" d="M20.901,230.75c0.977,0.691,1.932,1.425,2.942,2.07
	c1.597,1.019,3.483,0.017,3.592-1.874c0.016-0.225,0.01-0.452,0.014-0.674c0.054-4.412,0.106-8.826,0.161-13.235
	c0.057-4.141,2.489-6.522,6.611-6.47c1.993,0.021,3.99,0.042,5.985,0.072c3.524,0.057,6.027,2.626,5.986,6.136
	c-0.055,4.662-0.125,9.327-0.158,13.994c0,0.595,0.109,1.249,0.366,1.778c0.589,1.2,2.068,1.47,3.346,0.696
	c6.748-4.096,10.522-10.126,11.443-17.914c0.748-6.284-0.388-12.213-3.985-17.509c-2.555-3.76-6.016-6.491-10.181-8.283
	c-0.641-0.275-0.797-0.58-0.732-1.245c1.319-15.141,0.612-8.359,1.89-22.804c0.016-0.237-20.542-0.08-20.529,0.105
	c0.939,14.641,0.368,7.032,1.348,22.255c0.043,0.665-0.089,1.018-0.799,1.282c-4.362,1.652-8.112,4.263-10.722,8.114
	c-5.6,8.28-6.092,17.096-2.096,26.182c0.669,1.517,1.708,2.873,2.577,4.305C18.936,228.738,19.918,229.743,20.901,230.75z"/>
<rect x="58.321" y="178.523" fill="none" width="198.68" height="40.936"/>
<text transform="matrix(1 0 0 1 67.146 206.21)"><tspan x="0" y="0" fill="#383A56" font-family="'Roboto-Medium'" font-size="36.3349">WP</tspan><tspan x="52.568" y="0" fill="#383A56" font-family="'Roboto-Bold'" font-size="27.9499"> </tspan><tspan x="58.354" y="0" fill="#383A56" font-family="'Roboto-Light'" font-size="33.5399">Branding</tspan></text>
</svg>
